<svg width="30" height="40" viewBox="0 0 30 40" fill="none" xmlns="http://www.w3.org/2000/svg">
<path d="M16.6243 8.57143L16.9976 11.4286H26.4477L25.6637 17.1429H14.5601L13.8308 11.4286H13.8395L13.4662 8.57143L13.4618 8.5367L12.5758 1.59518L12.3721 0H0V2.85714H9.57975L10.3091 8.57143H1.35984L5.32882 37.4972C5.42464 38.1878 5.79343 38.8229 6.36614 39.2835C6.93885 39.7442 7.67622 39.9989 8.44021 40H22.9196C23.6837 39.999 24.4212 39.7444 24.9939 39.2837C25.5667 38.823 25.9356 38.1879 26.0314 37.4972L30 8.57143H16.6243ZM4.91213 11.4286H10.6737L11.403 17.1429H5.69612L4.91213 11.4286ZM22.921 37.1429H8.44011L6.08812 20H11.7677L13.1351 30.7143H16.2921L14.9246 20H25.2721L22.921 37.1429Z" fill="black"/>
</svg>
