<svg width="44" height="40" viewBox="0 0 44 40" fill="none" xmlns="http://www.w3.org/2000/svg">
<path d="M7.53125 25.8985V31.8891C9.36123 34.1331 11.6682 35.9413 14.2845 37.1821C16.9008 38.423 19.7606 39.0653 22.6562 39.0625C29.4125 39.0625 35.3687 35.6313 38.875 30.4172V22.0203C37.675 29.9 30.8703 35.9375 22.6562 35.9375C15.8531 35.9375 10.0172 31.7969 7.53125 25.8985ZM35.9844 9.96252V7.2719C35.9798 6.67848 36.077 6.08867 36.2719 5.52815C32.6298 1.97743 27.7427 -0.00680552 22.6562 2.14471e-05C18.1045 -0.00673465 13.6944 1.58289 10.1937 4.49221L10.2016 4.58752L10.2031 4.62971V8.84846C11.7419 7.05111 13.652 5.60871 15.8018 4.62064C17.9517 3.63257 20.2902 3.12231 22.6562 3.12502C28.1469 3.12502 33.0063 5.8219 35.9844 9.96252Z" fill="black"/>
<path d="M35.1562 19.5316C35.1562 22.8468 33.8393 26.0262 31.4951 28.3705C29.1509 30.7147 25.9715 32.0316 22.6562 32.0316C19.341 32.0316 16.1616 30.7147 13.8174 28.3705C11.4732 26.0262 10.1562 22.8468 10.1562 19.5316C10.1562 16.2164 11.4732 13.037 13.8174 10.6928C16.1616 8.34858 19.341 7.03162 22.6562 7.03162C25.9715 7.03162 29.1509 8.34858 31.4951 10.6928C33.8393 13.037 35.1562 16.2164 35.1562 19.5316ZM22.6562 30.4691C24.0926 30.4691 25.5148 30.1862 26.8418 29.6366C28.1688 29.0869 29.3746 28.2812 30.3902 27.2656C31.4059 26.25 32.2115 25.0442 32.7612 23.7172C33.3108 22.3902 33.5937 20.968 33.5937 19.5316C33.5937 18.0953 33.3108 16.673 32.7612 15.346C32.2115 14.019 31.4059 12.8133 30.3902 11.7976C29.3746 10.782 28.1688 9.97635 26.8418 9.42669C25.5148 8.87703 24.0926 8.59412 22.6562 8.59412C19.7554 8.59412 16.9734 9.74646 14.9223 11.7976C12.8711 13.8488 11.7187 16.6308 11.7187 19.5316C11.7187 22.4324 12.8711 25.2144 14.9223 27.2656C16.9734 29.3168 19.7554 30.4691 22.6562 30.4691ZM43.7344 6.15662C43.7344 4.75037 42.5937 3.60974 41.1875 3.60974C39.1562 3.60974 37.5312 5.25037 37.5469 7.26599V15.9379C37.5469 17.8957 38.6812 19.6488 40.4375 20.4426V33.9066C40.4375 34.7191 41.0937 35.3754 41.9062 35.3754H42.2656C43.0781 35.3754 43.7344 34.7191 43.7344 33.9066V6.15662ZM7.53125 3.60974C7.24946 3.60974 6.97921 3.72168 6.77995 3.92094C6.58069 4.1202 6.46875 4.39045 6.46875 4.67224V8.87537C6.46875 9.18787 6.21875 9.42224 5.92187 9.42224C5.60937 9.42224 5.375 9.17224 5.375 8.87537V4.71912C5.375 4.14099 4.92188 3.62537 4.34375 3.60974C3.73438 3.59412 3.23438 4.07849 3.23438 4.67224V8.87537C3.23438 9.18787 2.98437 9.42224 2.6875 9.42224C2.375 9.42224 2.14062 9.17224 2.14062 8.87537V4.71912C2.14062 4.14099 1.6875 3.62537 1.10938 3.60974C0.5 3.59412 0 4.07849 0 4.67224V11.8285C0 13.2379 0.682812 14.4957 1.73281 15.2801C2.67187 15.8097 2.67187 18.2347 2.67187 18.2347V33.891C2.67187 34.7035 3.32812 35.3597 4.14062 35.3597H4.5C5.3125 35.3597 5.96875 34.7035 5.96875 33.891V18.2347C5.96875 18.2347 5.96875 15.9051 6.90781 15.2801C7.44533 14.8793 7.88187 14.3586 8.18269 13.7593C8.48352 13.1601 8.64032 12.499 8.64062 11.8285V4.67224C8.6248 4.38752 8.50145 4.11943 8.2955 3.92218C8.08956 3.72494 7.81639 3.61326 7.53125 3.60974Z" fill="black"/>
</svg>
