<svg width="44" height="44" viewBox="0 0 44 44" fill="none" xmlns="http://www.w3.org/2000/svg">
<path d="M10.2352 19V10C10.2352 9.46957 10.4831 8.96086 10.9244 8.58579C11.3657 8.21071 11.9641 8 12.5882 8H16.1176C16.7416 8 17.3401 8.21071 17.7814 8.58579C18.2226 8.96086 18.4705 9.46957 18.4705 10V20V4C18.4705 3.46957 18.7184 2.96086 19.1597 2.58579C19.6009 2.21071 20.1994 2 20.8235 2H24.3529C24.9769 2 25.5754 2.21071 26.0167 2.58579C26.4579 2.96086 26.7058 3.46957 26.7058 4V20V12C26.7058 11.4696 26.9537 10.9609 27.395 10.5858C27.8362 10.2107 28.4347 10 29.0588 10H32.5882C33.2122 10 33.8107 10.2107 34.252 10.5858C34.6932 10.9609 34.9411 11.4696 34.9411 12V19" stroke="black" stroke-width="3" stroke-linecap="round" stroke-linejoin="round"/>
<path d="M2 16C2 16 10.2353 21 22 21C33.7647 21 42 16 42 16L36.3318 42H7.66824L2 16Z" stroke="black" stroke-width="3" stroke-linecap="round" stroke-linejoin="round"/>
<path d="M22 34C25.8985 34 29.0588 32.6569 29.0588 31C29.0588 29.3431 25.8985 28 22 28C18.1015 28 14.9412 29.3431 14.9412 31C14.9412 32.6569 18.1015 34 22 34Z" stroke="black" stroke-width="3"/>
</svg>
