<svg width="44" height="44" viewBox="0 0 44 44" fill="none" xmlns="http://www.w3.org/2000/svg">
<path d="M10.6332 42.0001H32.2162M21.4247 42.0001C26.5765 42.0001 31.5172 39.8551 35.1601 36.0372C38.8029 32.2192 40.8495 27.041 40.8495 21.6416H2C2 27.041 4.04653 32.2192 7.68937 36.0372C11.3322 39.8551 16.273 42.0001 21.4247 42.0001Z" stroke="black" stroke-width="3" stroke-linecap="round" stroke-linejoin="round"/>
<path d="M20.0866 21.6415C18.7795 21.6543 17.516 21.1486 16.5498 20.2259C15.5835 19.3033 14.9858 18.0318 14.8765 16.6665C14.7673 15.3013 15.1546 13.9432 15.9608 12.8648C16.767 11.7863 17.9324 11.0671 19.2233 10.8516C19.0166 9.89298 19.0621 8.89356 19.3548 7.95992C19.6476 7.02629 20.1767 6.19345 20.8857 5.55025C21.5946 4.90705 22.4569 4.47761 23.3805 4.30774C24.304 4.13787 25.2543 4.23393 26.1299 4.58569C26.5133 3.95314 27.0174 3.41062 27.6107 2.9923C28.2039 2.57398 28.8734 2.28891 29.5769 2.15505C30.2804 2.02118 31.0028 2.04141 31.6984 2.21447C32.3941 2.38753 33.0481 2.70967 33.6192 3.1606C34.6154 2.33998 35.864 1.93051 37.1288 2.00966C38.3936 2.0888 39.5869 2.65108 40.4829 3.5901C41.3788 4.52912 41.9153 5.77975 41.9908 7.10536C42.0663 8.43098 41.6756 9.73963 40.8927 10.7837C41.38 11.4622 41.7087 12.251 41.8523 13.0868C41.9959 13.9226 41.9504 14.782 41.7195 15.596C41.4886 16.41 41.0787 17.1559 40.5228 17.7737C39.9668 18.3916 39.2804 18.8641 38.5185 19.1533C38.7162 19.9674 38.7383 20.8174 38.5833 21.6415M23.5831 21.6415L32.2163 12.5933" stroke="black" stroke-width="3" stroke-linecap="round" stroke-linejoin="round"/>
<path d="M19.0506 10.8966C17.8668 9.57389 16.3302 8.65565 14.6411 8.26157C12.9521 7.86748 11.189 8.01582 9.58155 8.68726C7.97413 9.35869 6.59699 10.5221 5.62962 12.0258C4.66226 13.5294 4.14954 15.3037 4.15831 17.1172C4.15831 18.7685 4.58997 20.3067 5.3238 21.6413" stroke="black" stroke-width="3" stroke-linecap="round" stroke-linejoin="round"/>
</svg>
